<?xml version="1.0" encoding="utf-8"?>
<!-- Generator: Adobe Illustrator 26.0.3, SVG Export Plug-In . SVG Version: 6.00 Build 0)  -->
<svg version="1.1" id="Layer_1" xmlns="http://www.w3.org/2000/svg" xmlns:xlink="http://www.w3.org/1999/xlink" x="0px" y="0px"
	 viewBox="0 0 500 500" style="enable-background:new 0 0 500 500;" xml:space="preserve">
<style type="text/css">
	.st0{fill:#005DE5;}
</style>
<g>
	<g>
		<path class="st0" d="M284.8,368.4c-11,3.2-22.7,5-34.8,5c-68,0-123.4-55.3-123.4-123.4S182,126.6,250,126.6c7.1,0,14,0.6,20.7,1.8
			c5.8-10.3,12.4-20.1,19.6-29.3c-12.9-3.4-26.4-5.3-40.3-5.3c-86.1,0-156.2,70.1-156.2,156.2S163.9,406.2,250,406.2
			c20.3,0,39.7-3.9,57.6-11C299.3,386.9,291.7,377.9,284.8,368.4z"/>
		<path class="st0" d="M406.2,250c0-54.8-28.4-103.1-71.3-131c-7.4,8.1-14,17-19.7,26.3c34.9,21.8,58.2,60.6,58.2,104.7
			c0,38.9-18.1,73.7-46.4,96.3c6.8,8.7,14.4,16.7,22.7,23.9C384.2,341.5,406.2,298.3,406.2,250z"/>
	</g>
	<g>
		<path class="st0" d="M284.8,368.4c-11,3.2-22.7,5-34.8,5c-68,0-123.4-55.3-123.4-123.4S182,126.6,250,126.6c7.1,0,14,0.6,20.7,1.8
			c5.8-10.3,12.4-20.1,19.6-29.3c-12.9-3.4-26.4-5.3-40.3-5.3c-86.1,0-156.2,70.1-156.2,156.2S163.9,406.2,250,406.2
			c20.3,0,39.7-3.9,57.6-11C299.3,386.9,291.7,377.9,284.8,368.4z"/>
		<path class="st0" d="M406.2,250c0-54.8-28.4-103.1-71.3-131c-7.4,8.1-14,17-19.7,26.3c34.9,21.8,58.2,60.6,58.2,104.7
			c0,38.9-18.1,73.7-46.4,96.3c6.8,8.7,14.4,16.7,22.7,23.9C384.2,341.5,406.2,298.3,406.2,250z"/>
	</g>
</g>
</svg>
