<?xml version="1.0" encoding="utf-8"?>
<!-- Generator: Adobe Illustrator 26.0.3, SVG Export Plug-In . SVG Version: 6.00 Build 0)  -->
<svg version="1.1" id="Layer_1" xmlns="http://www.w3.org/2000/svg" xmlns:xlink="http://www.w3.org/1999/xlink" x="0px" y="0px"
	 viewBox="0 0 500 500" style="enable-background:new 0 0 500 500;" xml:space="preserve">
<style type="text/css">
	.st0{fill:#FFFFFF;}
</style>
<g>
	<g>
		<g>
			<path class="st0" d="M278.8,289c-9.1,2.7-18.8,4.2-28.8,4.2c-56.4,0-102.3-45.9-102.3-102.3S193.6,88.7,250,88.7
				c5.8,0,11.6,0.5,17.2,1.5c4.8-8.5,10.2-16.7,16.3-24.3c-10.7-2.9-21.9-4.4-33.4-4.4c-71.4,0-129.5,58.1-129.5,129.5
				S178.6,320.4,250,320.4c16.8,0,32.9-3.3,47.7-9.1C290.8,304.4,284.5,296.9,278.8,289z"/>
			<path class="st0" d="M379.5,190.9c0-45.4-23.6-85.5-59.1-108.6c-6.1,6.7-11.6,14.1-16.4,21.8c28.9,18.1,48.2,50.2,48.2,86.7
				c0,32.3-15,61.1-38.5,79.8c5.6,7.2,11.9,13.8,18.8,19.8C361.2,266.8,379.5,231,379.5,190.9z"/>
		</g>
		<g>
			<path class="st0" d="M278.8,289c-9.1,2.7-18.8,4.2-28.8,4.2c-56.4,0-102.3-45.9-102.3-102.3S193.6,88.7,250,88.7
				c5.8,0,11.6,0.5,17.2,1.5c4.8-8.5,10.2-16.7,16.3-24.3c-10.7-2.9-21.9-4.4-33.4-4.4c-71.4,0-129.5,58.1-129.5,129.5
				S178.6,320.4,250,320.4c16.8,0,32.9-3.3,47.7-9.1C290.8,304.4,284.5,296.9,278.8,289z"/>
			<path class="st0" d="M379.5,190.9c0-45.4-23.6-85.5-59.1-108.6c-6.1,6.7-11.6,14.1-16.4,21.8c28.9,18.1,48.2,50.2,48.2,86.7
				c0,32.3-15,61.1-38.5,79.8c5.6,7.2,11.9,13.8,18.8,19.8C361.2,266.8,379.5,231,379.5,190.9z"/>
		</g>
	</g>
	<g>
		<g>
			<path class="st0" d="M151.6,391.6h-15.2l-2.3,7h-12.5l15.6-42.8h13.7l15.5,42.8h-12.6L151.6,391.6z M148.6,382.4l-4.6-13.8
				l-4.6,13.8H148.6z"/>
			<path class="st0" d="M183.4,388.9h17.8v9.7H170v-9l17.6-24.2H170v-9.6h31.2v9L183.4,388.9z"/>
			<path class="st0" d="M251.2,377.1c-1.2,2.1-3,3.8-5.4,5.1c-2.4,1.3-5.4,1.9-8.8,1.9h-5.9v14.5h-11.9v-42.8H237
				c3.4,0,6.4,0.6,8.8,1.8c2.4,1.2,4.2,2.9,5.4,5c1.2,2.1,1.8,4.6,1.8,7.4C253,372.6,252.4,374.9,251.2,377.1z M240.9,370
				c0-3.1-1.7-4.7-5-4.7h-4.7v9.3h4.7C239.2,374.6,240.9,373.1,240.9,370z"/>
			<path class="st0" d="M284.9,391.6h-15.2l-2.3,7h-12.5l15.6-42.8h13.7l15.5,42.8h-12.6L284.9,391.6z M281.9,382.4l-4.6-13.8
				l-4.6,13.8H281.9z"/>
			<path class="st0" d="M342.6,355.7l-15.1,29.2v13.6h-12v-13.6l-15.1-29.2h13.6l7.5,16.5l7.5-16.5H342.6z"/>
			<path class="st0" d="M350.2,395.4c-3.2-2.4-4.9-5.8-5.2-10.2h12.7c0.1,1.5,0.6,2.6,1.3,3.3c0.8,0.7,1.8,1,3,1
				c1.1,0,2-0.3,2.7-0.8c0.7-0.5,1.1-1.3,1.1-2.3c0-1.3-0.6-2.2-1.8-2.9c-1.2-0.7-3.1-1.5-5.7-2.3c-2.8-0.9-5.1-1.8-6.8-2.7
				c-1.7-0.9-3.2-2.1-4.5-3.8c-1.3-1.7-1.9-3.9-1.9-6.6c0-2.8,0.7-5.1,2.1-7.1c1.4-2,3.3-3.5,5.7-4.5c2.4-1,5.2-1.5,8.3-1.5
				c5,0,9,1.2,11.9,3.5c3,2.3,4.6,5.6,4.8,9.8h-12.9c0-1.3-0.4-2.3-1.2-2.9c-0.8-0.6-1.7-1-2.9-1c-0.9,0-1.6,0.3-2.2,0.8
				c-0.6,0.5-0.8,1.3-0.8,2.2c0,0.8,0.3,1.5,0.9,2.1c0.6,0.6,1.4,1.1,2.3,1.5c0.9,0.4,2.3,1,4.1,1.6c2.7,0.9,5,1.9,6.7,2.8
				c1.8,0.9,3.3,2.2,4.6,3.8c1.3,1.6,1.9,3.7,1.9,6.2c0,2.6-0.6,4.8-1.9,6.9c-1.3,2-3.1,3.6-5.5,4.8c-2.4,1.2-5.3,1.8-8.5,1.8
				C357.4,399,353.4,397.8,350.2,395.4z"/>
		</g>
	</g>
	<g>
		<path class="st0" d="M133,422.3c-1,1-2.6,1.5-4.7,1.5h-3.7v7.9h-1.9v-18.5h5.6c2.1,0,3.6,0.5,4.7,1.5c1.1,1,1.6,2.3,1.6,3.9
			C134.6,420.1,134.1,421.4,133,422.3z M132.7,418.5c0-1.2-0.3-2.2-1-2.8c-0.7-0.6-1.8-1-3.3-1h-3.7v7.5h3.7
			C131.2,422.2,132.7,421,132.7,418.5z"/>
		<path class="st0" d="M137.7,420.5c0.6-1.1,1.4-2,2.5-2.6c1.1-0.6,2.2-0.9,3.6-0.9c1.4,0,2.6,0.3,3.6,1c1,0.6,1.7,1.4,2.2,2.4v-3.2
			h1.9v14.5h-1.9v-3.2c-0.5,1-1.2,1.8-2.2,2.5c-1,0.6-2.2,1-3.6,1c-1.3,0-2.5-0.3-3.5-0.9c-1.1-0.6-1.9-1.5-2.5-2.6
			c-0.6-1.1-0.9-2.4-0.9-3.9C136.8,423,137.1,421.7,137.7,420.5z M148.8,421.4c-0.5-0.9-1.1-1.6-1.9-2c-0.8-0.5-1.7-0.7-2.7-0.7
			c-1,0-1.9,0.2-2.8,0.7c-0.8,0.5-1.5,1.1-1.9,2c-0.5,0.9-0.7,1.9-0.7,3.1c0,1.2,0.2,2.2,0.7,3.1c0.5,0.9,1.1,1.6,1.9,2
			c0.8,0.5,1.7,0.7,2.8,0.7c1,0,1.9-0.2,2.7-0.7c0.8-0.5,1.5-1.2,1.9-2c0.5-0.9,0.7-1.9,0.7-3.1
			C149.5,423.3,149.2,422.3,148.8,421.4z"/>
		<path class="st0" d="M167.5,417.2l-8.6,21.3H157l2.8-6.9l-5.9-14.4h2l4.9,12.4l4.8-12.4H167.5z"/>
		<path class="st0" d="M191.4,418.6c1.1,1.1,1.6,2.6,1.6,4.7v8.5h-1.8v-8.3c0-1.6-0.4-2.8-1.1-3.6c-0.8-0.8-1.8-1.2-3.1-1.2
			c-1.4,0-2.4,0.4-3.3,1.4c-0.8,0.9-1.2,2.2-1.2,3.9v7.8h-1.8v-8.3c0-1.6-0.4-2.8-1.1-3.6c-0.8-0.8-1.8-1.2-3.1-1.2
			c-1.4,0-2.4,0.4-3.3,1.4c-0.8,0.9-1.2,2.2-1.2,3.9v7.8H170v-14.5h1.9v2.5c0.5-0.9,1.1-1.6,2-2.1c0.8-0.5,1.8-0.7,2.8-0.7
			c1.3,0,2.4,0.3,3.3,0.9c0.9,0.6,1.6,1.5,2.1,2.7c0.4-1.1,1.1-2,2-2.6c0.9-0.6,2-0.9,3.2-0.9C189,417,190.3,417.5,191.4,418.6z"/>
		<path class="st0" d="M210.2,425.2h-12c0.1,1.1,0.3,2,0.8,2.8c0.5,0.8,1.1,1.4,1.9,1.8c0.8,0.4,1.6,0.6,2.5,0.6
			c1.2,0,2.2-0.3,3-0.9c0.8-0.6,1.4-1.4,1.6-2.4h2c-0.4,1.4-1.1,2.6-2.3,3.5c-1.2,0.9-2.6,1.3-4.4,1.3c-1.4,0-2.6-0.3-3.7-0.9
			c-1.1-0.6-1.9-1.5-2.5-2.6c-0.6-1.1-0.9-2.4-0.9-3.9c0-1.5,0.3-2.8,0.9-4c0.6-1.1,1.4-2,2.5-2.6c1.1-0.6,2.3-0.9,3.7-0.9
			c1.4,0,2.6,0.3,3.6,0.9c1,0.6,1.8,1.4,2.4,2.4c0.6,1,0.8,2.1,0.8,3.4C210.2,424.4,210.2,424.8,210.2,425.2z M207.7,420.9
			c-0.5-0.8-1.1-1.3-1.8-1.7c-0.8-0.4-1.6-0.6-2.5-0.6c-1.4,0-2.6,0.4-3.5,1.3c-1,0.9-1.5,2.1-1.6,3.7h10.2
			C208.4,422.6,208.1,421.7,207.7,420.9z"/>
		<path class="st0" d="M224.6,418.6c1.1,1.1,1.6,2.6,1.6,4.7v8.5h-1.8v-8.3c0-1.6-0.4-2.8-1.2-3.6c-0.8-0.8-1.9-1.2-3.2-1.2
			c-1.4,0-2.5,0.4-3.3,1.3c-0.8,0.9-1.2,2.2-1.2,3.9v7.9h-1.9v-14.5h1.9v2.5c0.5-0.9,1.1-1.6,2-2c0.9-0.5,1.8-0.7,2.9-0.7
			C222.1,417,223.5,417.5,224.6,418.6z"/>
		<path class="st0" d="M232.8,418.8v9c0,0.9,0.2,1.5,0.5,1.8c0.3,0.3,0.9,0.5,1.8,0.5h1.7v1.6h-2c-1.3,0-2.3-0.3-2.9-0.9
			c-0.6-0.6-1-1.6-1-3v-9h-2v-1.6h2v-3.6h1.9v3.6h4v1.6H232.8z"/>
		<path class="st0" d="M249.5,431.3c-0.9-0.4-1.7-1-2.2-1.8c-0.5-0.8-0.8-1.6-0.8-2.5h2c0.1,0.9,0.5,1.7,1.2,2.4
			c0.7,0.7,1.7,1,3.1,1c1.3,0,2.2-0.3,3-1c0.7-0.6,1.1-1.5,1.1-2.5c0-0.8-0.2-1.4-0.6-1.9c-0.4-0.5-0.9-0.8-1.5-1.1
			c-0.6-0.2-1.4-0.5-2.5-0.8c-1.2-0.3-2.2-0.7-2.9-1c-0.7-0.3-1.3-0.8-1.9-1.5c-0.5-0.7-0.8-1.6-0.8-2.7c0-1,0.2-1.8,0.7-2.6
			s1.2-1.3,2.1-1.8c0.9-0.4,1.9-0.6,3.1-0.6c1.7,0,3.1,0.4,4.1,1.3c1.1,0.8,1.7,1.9,1.8,3.2h-2c-0.1-0.8-0.5-1.4-1.2-2
			c-0.7-0.6-1.7-0.9-2.9-0.9c-1.1,0-2,0.3-2.8,0.9c-0.7,0.6-1.1,1.4-1.1,2.4c0,0.8,0.2,1.4,0.6,1.9c0.4,0.5,0.9,0.8,1.5,1.1
			c0.6,0.2,1.4,0.5,2.5,0.8c1.2,0.3,2.2,0.7,2.9,1c0.7,0.3,1.4,0.8,1.9,1.5s0.8,1.6,0.8,2.7c0,0.9-0.2,1.7-0.7,2.5s-1.1,1.4-2,1.9
			c-0.9,0.5-2,0.7-3.2,0.7C251.5,431.9,250.4,431.7,249.5,431.3z"/>
		<path class="st0" d="M262.2,414.1c-0.3-0.3-0.4-0.6-0.4-1c0-0.4,0.1-0.7,0.4-1c0.3-0.3,0.6-0.4,1-0.4c0.4,0,0.7,0.1,1,0.4
			c0.3,0.3,0.4,0.6,0.4,1c0,0.4-0.1,0.7-0.4,1c-0.3,0.3-0.6,0.4-1,0.4C262.8,414.5,262.5,414.4,262.2,414.1z M264.1,417.2v14.5h-1.9
			v-14.5H264.1z"/>
		<path class="st0" d="M289.7,418.6c1.1,1.1,1.6,2.6,1.6,4.7v8.5h-1.8v-8.3c0-1.6-0.4-2.8-1.1-3.6c-0.8-0.8-1.8-1.2-3.1-1.2
			c-1.4,0-2.4,0.4-3.3,1.4c-0.8,0.9-1.2,2.2-1.2,3.9v7.8h-1.8v-8.3c0-1.6-0.4-2.8-1.1-3.6c-0.8-0.8-1.8-1.2-3.1-1.2
			c-1.4,0-2.4,0.4-3.3,1.4c-0.8,0.9-1.2,2.2-1.2,3.9v7.8h-1.9v-14.5h1.9v2.5c0.5-0.9,1.1-1.6,2-2.1c0.8-0.5,1.8-0.7,2.8-0.7
			c1.3,0,2.4,0.3,3.3,0.9c0.9,0.6,1.6,1.5,2.1,2.7c0.4-1.1,1.1-2,2-2.6c0.9-0.6,2-0.9,3.2-0.9C287.3,417,288.6,417.5,289.7,418.6z"
			/>
		<path class="st0" d="M299.4,418c1-0.6,2.2-1,3.6-1c1.3,0,2.5,0.3,3.5,0.9c1.1,0.6,1.9,1.5,2.5,2.6c0.6,1.1,0.9,2.4,0.9,3.9
			c0,1.5-0.3,2.8-0.9,3.9c-0.6,1.1-1.4,2-2.5,2.6c-1,0.6-2.2,0.9-3.5,0.9c-1.4,0-2.5-0.3-3.6-1c-1-0.6-1.7-1.5-2.2-2.4v10h-1.8
			v-21.3h1.8v3.2C297.7,419.4,298.4,418.6,299.4,418z M307.3,421.3c-0.5-0.9-1.1-1.5-1.9-2s-1.7-0.7-2.8-0.7c-1,0-1.9,0.2-2.7,0.7
			c-0.8,0.5-1.5,1.2-1.9,2c-0.5,0.9-0.7,1.9-0.7,3.1c0,1.2,0.2,2.2,0.7,3.1c0.5,0.9,1.1,1.6,1.9,2c0.8,0.5,1.7,0.7,2.7,0.7
			c1,0,1.9-0.2,2.8-0.7c0.8-0.5,1.5-1.1,1.9-2c0.5-0.9,0.7-1.9,0.7-3.1C308,423.2,307.8,422.2,307.3,421.3z"/>
		<path class="st0" d="M315.2,412.1v19.6h-1.9v-19.6H315.2z"/>
		<path class="st0" d="M319.4,414.1c-0.3-0.3-0.4-0.6-0.4-1c0-0.4,0.1-0.7,0.4-1c0.3-0.3,0.6-0.4,1-0.4c0.4,0,0.7,0.1,1,0.4
			c0.3,0.3,0.4,0.6,0.4,1c0,0.4-0.1,0.7-0.4,1c-0.3,0.3-0.6,0.4-1,0.4C319.9,414.5,319.6,414.4,319.4,414.1z M321.2,417.2v14.5h-1.9
			v-14.5H321.2z"/>
		<path class="st0" d="M327.8,417.2h8.1v14.5H334v-12.9h-6.2v12.9h-1.9v-12.9h-2v-1.6h2v-1c0-1.6,0.4-2.7,1.2-3.5s2.1-1.1,3.9-1.1
			v1.6c-1.2,0-2,0.2-2.5,0.7c-0.5,0.5-0.7,1.2-0.7,2.3V417.2z M335.9,412.2c0.3,0.3,0.4,0.6,0.4,1c0,0.4-0.1,0.7-0.4,1
			c-0.3,0.3-0.6,0.4-1,0.4c-0.4,0-0.7-0.1-1-0.4c-0.3-0.3-0.4-0.6-0.4-1c0-0.4,0.1-0.7,0.4-1c0.3-0.3,0.6-0.4,1-0.4
			C335.3,411.8,335.7,411.9,335.9,412.2z"/>
		<path class="st0" d="M353,425.2h-12c0.1,1.1,0.3,2,0.8,2.8c0.5,0.8,1.1,1.4,1.9,1.8c0.8,0.4,1.6,0.6,2.5,0.6c1.2,0,2.2-0.3,3-0.9
			c0.8-0.6,1.4-1.4,1.6-2.4h2c-0.4,1.4-1.1,2.6-2.3,3.5c-1.2,0.9-2.6,1.3-4.4,1.3c-1.4,0-2.6-0.3-3.7-0.9c-1.1-0.6-1.9-1.5-2.5-2.6
			c-0.6-1.1-0.9-2.4-0.9-3.9c0-1.5,0.3-2.8,0.9-4c0.6-1.1,1.4-2,2.5-2.6c1.1-0.6,2.3-0.9,3.7-0.9c1.4,0,2.6,0.3,3.6,0.9
			c1,0.6,1.8,1.4,2.4,2.4c0.6,1,0.8,2.1,0.8,3.4C353.1,424.4,353.1,424.8,353,425.2z M350.6,420.9c-0.4-0.8-1.1-1.3-1.8-1.7
			c-0.8-0.4-1.6-0.6-2.5-0.6c-1.4,0-2.6,0.4-3.5,1.3c-1,0.9-1.5,2.1-1.6,3.7h10.2C351.2,422.6,351,421.7,350.6,420.9z"/>
		<path class="st0" d="M356.5,420.5c0.6-1.1,1.4-2,2.5-2.6c1.1-0.6,2.2-0.9,3.6-0.9c1.3,0,2.4,0.3,3.4,0.9c1,0.6,1.8,1.4,2.3,2.4
			v-8.3h1.9v19.6h-1.9v-3.2c-0.4,1-1.2,1.8-2.2,2.5c-1,0.6-2.2,1-3.6,1c-1.3,0-2.5-0.3-3.6-0.9c-1.1-0.6-1.9-1.5-2.5-2.6
			c-0.6-1.1-0.9-2.4-0.9-3.9C355.6,423,355.9,421.7,356.5,420.5z M367.6,421.4c-0.5-0.9-1.1-1.6-1.9-2c-0.8-0.5-1.7-0.7-2.7-0.7
			c-1,0-1.9,0.2-2.8,0.7c-0.8,0.5-1.5,1.1-1.9,2c-0.5,0.9-0.7,1.9-0.7,3.1c0,1.2,0.2,2.2,0.7,3.1c0.5,0.9,1.1,1.6,1.9,2
			c0.8,0.5,1.7,0.7,2.8,0.7c1,0,1.9-0.2,2.7-0.7c0.8-0.5,1.5-1.2,1.9-2c0.5-0.9,0.7-1.9,0.7-3.1C368.3,423.3,368,422.3,367.6,421.4z
			"/>
		<path class="st0" d="M375,431.4c-0.3-0.3-0.4-0.6-0.4-1c0-0.4,0.1-0.7,0.4-1c0.3-0.3,0.6-0.4,1-0.4c0.4,0,0.7,0.1,0.9,0.4
			c0.3,0.3,0.4,0.6,0.4,1c0,0.4-0.1,0.7-0.4,1c-0.3,0.3-0.6,0.4-0.9,0.4C375.5,431.8,375.2,431.7,375,431.4z M376.9,413.2l-0.2,13.6
			h-1.6l-0.2-13.6H376.9z"/>
	</g>
</g>
</svg>
